<svg width="32" height="32" viewBox="0 0 32 32" fill="none" xmlns="http://www.w3.org/2000/svg">
<g clip-path="url(#clip0_2160_1650)">
<path d="M2.81696 0L18.8122 16L2.81853 32C2.53413 31.8804 2.29142 31.6794 2.12093 31.4223C1.95044 31.1652 1.85978 30.8634 1.86035 30.5549V1.44669C1.86017 1.13827 1.95078 0.836617 2.12089 0.579351C2.29101 0.322086 2.53309 0.120593 2.81696 0ZM19.9228 17.1105L23.5387 20.7265L6.35908 30.6743L19.9228 17.1105ZM24.9477 12.0872L29.3569 14.6413C29.595 14.7794 29.7925 14.9775 29.9299 15.216C30.0672 15.4545 30.1395 15.7248 30.1395 16C30.1395 16.2752 30.0672 16.5455 29.9299 16.784C29.7925 17.0225 29.595 17.2206 29.3569 17.3587L24.9462 19.9128L21.0333 16L24.9477 12.0872ZM6.35908 1.32574L23.5403 11.2719L19.9228 14.8895L6.35908 1.32574Z" fill="#F4F4F5"/>
</g>
<defs>
<clipPath id="clip0_2160_1650">
<rect width="32" height="32" fill="white"/>
</clipPath>
</defs>
</svg>
